<?xml version="1.0" standalone="no"?><!DOCTYPE svg PUBLIC "-//W3C//DTD SVG 1.1//EN" "http://www.w3.org/Graphics/SVG/1.1/DTD/svg11.dtd"><svg t="1600606952263" class="icon" viewBox="0 0 1024 1024" version="1.1" xmlns="http://www.w3.org/2000/svg" p-id="604" xmlns:xlink="http://www.w3.org/1999/xlink" width="200" height="200"><defs><style type="text/css"></style></defs><path d="M546.465 54.774a89.842 69.181 90 1 0 0 179.684 89.842 69.181 90 1 0 0-179.684zM764.451 278.005a118.59 86.966 0 1 0 0 173.933 118.59 86.966 0 1 0 0-173.933zM770.29200001 565.1a124.431 96.674 0 1 0 0 193.348 124.431 96.674 0 1 0-1e-8-193.347zM562.888 808.454a74.444 70.4 0 1 0 0 140.8 74.444 70.4 0 1 0 0-140.8z" fill="#EEDD8F" p-id="605"></path><path d="M613.81 497.08c0.83 93.995-81.731 194.105-247.715 300.364-69.99499999 44.81-162.268 31.48-216.717-31.308L126.9 740.178c-40.119-46.27199999-43.707-113.872-8.718-164.133l4.319-6.19799999c33.169-47.624 33.102-110.877-0.167-158.42500001l-6.752-9.635c-36.309-51.85-31.61-121.988 11.294-168.531l16.8-18.212c54.274-58.896 143.022-70.28 210.403-26.987 172.326 110.71199999 258.89800001 213.7 259.731 308.995l0 0.028zM324.161 234.643c-44.766-28.76-103.71800001-21.196-139.77 17.93l-16.802 18.24c-25.248 27.41-28.008 68.699-6.64 99.23l6.72 9.63c46.587 66.57 46.686 155.138 0.252 221.809l-4.319 6.203c-20.515 29.47-18.406 69.104 5.122 96.236l22.502 25.96c36.442 42.01 98.19 50.934 145.03 20.952 151.48-96.988 222.81-183.508 222.225-253.253-0.636-71.435-76.223-161.362-234.32-262.937z m297.122 401.882c15.802-89.762 93.798-109.333 174.289-88.213C876.087 569.46 940.43700001 627.14 929.2 690.855c-11.238 63.714-76.224 97.896-174.318 88.208-98.06-9.688-149.46-52.757-133.6-142.538z m54.52400001 9.63c-8.937 50.597 10.96099999 70.577 84.52799999 77.828 71.687 7.083 108.942-11.981 114.368-42.759 4.594-26.128-32.218-63.38-93.167-79.354-62.469-16.383-97.698-1.326-105.73 44.286z m-51.03700002-273.29c-12.732-90.34 50.459-137.035 133.32500002-137.035 82.894 0 156.932 30.916 165.95499999 94.963 9.022 64.074-52.477 114.723-133.324 137.063-80.875 22.307-153.28-4.62400001-165.956-94.992z m54.80100001-7.698c6.866 48.74300001 38.974 65.182 96.403 49.323 63.604-17.547 96.958-49.707 93.275-75.977-3.597-25.685-44.894-47.327-111.15399999-47.327-58.23700001 0-85.356 25.353-78.52400001 73.981zM466.174 822.96c38.034-64.103 102.93500001-69.195 149.13-34.518 46.193 34.713 73.787 95.05 49.737 144.75800001-24.05099999 49.77-97.619 62.054-149.127 34.54399999-51.50699999-27.484-87.797-80.628-49.764-144.754l0.024-0.03z m47.608 28.262c-16.164 27.205-6.64 49.126 28.176 67.69999999 28.01300001 14.942 65.043 7.16299999 73.26300001-9.80499999 9.745-20.147-2.879-53.662-33.18200001-76.39-23.805-17.905-49.517-13.14499999-68.285 18.49400001l0.02799999-1e-8z m-45.25-624.82700001c-47.912-47.912-38.751-115.612 7.915-152.86599999 46.68999999-37.284 117.798-43.73 152.89-7.916 35.068 35.786 38.52699999 102.294-7.915 152.866-46.44400001 50.59-104.95600001 55.85-152.89 7.91599999z m39.188-39.14099999c24.136 24.136 46.391 22.753 72.988-6.196 24.635-26.849 25.324-60.203 9.132-76.722-11.954-12.183-51.09-9.68800001-78.798 12.452-23.386 18.65299999-25.659 48.106-3.322 70.466z m0 0" fill="#6B4A22" p-id="606"></path><path d="M360.38 345.79a142.473 131.713 90 1 0 0 284.945 142.473 131.713 90 1 0 0-284.945z" fill="#EEDD8F" p-id="607"></path></svg>