<?xml version="1.0" standalone="no"?><!DOCTYPE svg PUBLIC "-//W3C//DTD SVG 1.1//EN" "http://www.w3.org/Graphics/SVG/1.1/DTD/svg11.dtd"><svg t="1598081536811" class="icon" viewBox="0 0 1024 1024" version="1.1" xmlns="http://www.w3.org/2000/svg" p-id="755" xmlns:xlink="http://www.w3.org/1999/xlink" width="200" height="200"><defs><style type="text/css"></style></defs><path d="M194.66 578.065l302.323-302.028a45.304 45.304 0 0 1 43.528-8.883l129.99 29.61a79.652 79.652 0 0 1 55.964 56.26l31.683 129.991a45.304 45.304 0 0 1-10.067 43.527L446.053 829.755a59.221 59.221 0 0 1-79.356-10.66L205.319 657.42a59.221 59.221 0 0 1-10.66-79.356z" fill="#FFDC00" p-id="756"></path><path d="M521.6 961.2c-35.2 0-69.9-9.2-101.2-27.3L148.9 777.1C94.6 745.8 76 676.2 107.3 622c0 0 46.1-79.8 56-96.9C174.5 505.6 376 156.6 376 156.6c18-31.3 58.4-40.5 87.8-47.2C470 108 615 75.1 705.1 65.5h0.4c27.3-2.4 56-2.7 80.3 11.5 24.2 14.1 38.5 39.3 50.3 64.4 0.1 0.2 0.1 0.3 0.2 0.5 36.8 82.8 80.5 224.3 82.4 230.2v0.1c10 33.3 19.3 71.2 3 99.5L776.6 723.1c-1.6 2.9-3.2 5.5-4.8 8-2 3.3-4.5 7.4-6.1 10.6 10.5 7 13.9 20.9 7.5 32-6.6 11.5-21.3 15.4-32.8 8.8-12.5-7.2-20.3-16.6-23.2-27.8-4.7-18.1 4.5-33.5 13.5-48.3 1.4-2.4 2.9-4.8 4.3-7.3l145.2-251.4c7.3-12.7-3.7-49.4-7.4-61.6-1.2-3.7-44.9-145-80.2-224.6-11.4-24.2-20.7-37.1-30.9-43.1-10.3-6-25.3-7.5-51.8-5.2-87.3 9.2-234 42.5-235.4 42.9-19.6 4.5-49.4 11.3-56.9 24.4 0 0-201.5 349.1-212.8 368.5-9.9 17.1-56 96.9-56 96.9-18.1 31.3-7.3 71.5 24 89.6l271.5 156.7c35.9 20.7 77.7 26.2 117.7 15.5s73.5-36.4 94.2-72.3c0.2-0.3 0.1-0.2 0.2-0.3 1-1.8 3.3-7.1 3.4-12.4 0.1-4.5-1-9.9-10.7-15.5-90.3-52.1-311.4-179.8-349.5-201.8-11.5-6.6-15.4-21.3-8.8-32.8 6.6-11.5 21.3-15.4 32.8-8.8 38 22 259.2 149.7 349.5 201.8 21.7 12.5 29.8 29.1 32.8 40.8 6.7 26.2-6 49.4-8.2 53.2-27.1 46.9-70.9 80.5-123.3 94.5-17.4 4.8-35.2 7.1-52.8 7.1z" fill="#6B400D" p-id="757"></path><path d="M615.1 508.3c-23.6 0-46.8-6.2-67.8-18.3-31.5-18.2-54-47.5-63.4-82.6-9.4-35.1-4.6-71.7 13.6-103.2 37.5-64.9 120.8-87.2 185.7-49.8 31.5 18.2 53.9 47.5 63.3 82.6 9.4 35.1 4.6 71.7-13.6 103.2s-47.5 53.9-82.6 63.3c-11.5 3.3-23.4 4.8-35.2 4.8z m0.3-223.9c-30.4 0-60 15.8-76.3 44-11.8 20.3-14.9 44.1-8.8 66.7 6.1 22.7 20.6 41.7 41 53.4 20.3 11.8 44.1 14.9 66.7 8.8 22.7-6.1 41.7-20.6 53.4-41 11.7-20.3 14.9-44 8.8-66.7-6.1-22.7-20.6-41.7-41-53.4-13.7-8.1-28.8-11.8-43.8-11.8z" fill="#6B400D" p-id="758"></path></svg>