<?xml version="1.0" standalone="no"?><!DOCTYPE svg PUBLIC "-//W3C//DTD SVG 1.1//EN" "http://www.w3.org/Graphics/SVG/1.1/DTD/svg11.dtd"><svg t="1600074947084" class="icon" viewBox="0 0 1033 1024" version="1.1" xmlns="http://www.w3.org/2000/svg" p-id="616" xmlns:xlink="http://www.w3.org/1999/xlink" width="201.7578125" height="200"><defs><style type="text/css"></style></defs><path d="M8.764 514.236c0-276.12199999 217.992-500.82100001 486.289-500.821S981.34 236.995 981.34 514.235 764.467 1013.93999999 495.053 1013.94c-268.297 0-486.289-223.58-486.289-499.703" fill="#F8C121" p-id="617"></path><path d="M537.533 1013.939c-248.17500001-23.476-442.69-236.996-442.69-498.58500001 0-269.415 207.93-489.642 467.28400001-499.70299999-14.533-1.118-29.066-2.236-44.71600001-2.236-268.297 0-486.289 223.58-486.289 500.82 0 276.123 217.992 500.822 486.289 500.822 6.707-1.118 13.415-1.118 20.122-1.118z" fill="#F7931E" p-id="618"></path><path d="M814.773 98.376c2.236 0 4.472 1.117 6.708 2.235C947.804 196.751 1023.82 349.904 1023.82 512c0 281.712-223.58 512-497.467 512-177.74700001 0-343.197-98.376-431.511-257.118-3.354-5.59-1.118-12.297 4.472-15.65 5.59-3.354 12.297-1.118 15.65 4.471C199.925 907.738 357.55 1001.642 527.472 1001.642 787.943 1001.64199999 1001.463 781.415 1001.463 512c0-154.26999999-72.664-301.834-193.397-394.62-4.472-3.354-5.59-11.18-2.236-15.65 2.236-2.237 5.59-3.354 8.943-3.354z m-96.14-57.014c1.118 0 3.35399999 0 4.472 1.118 19.004 7.826 36.89 17.887 53.66 27.948 5.589 3.35399999 6.70700001 10.061 3.353 15.65-3.354 5.59-10.061 6.708-15.65 3.354-16.77-10.06-33.538-19.004-51.424-26.83-5.59-2.235-7.825-8.943-5.59-14.53200001 3.354-4.472 6.708-6.708 11.18-6.70799999zM526.353 0c55.896 0 110.673 8.943 163.215 27.948 5.59 2.235 8.943 8.943 6.707 14.532-2.236 5.59-8.943 8.94400001-14.53200001 6.708-50.306-17.887-102.848-26.83-155.38999999-26.82999999-261.58899999 0-475.108 219.11-475.10800001 489.64199999 0 6.707-4.472 11.179-11.17999999 11.179s-11.178-4.47200001-11.178-11.179c0-281.712 222.463-512 497.467-512z m-484.052 557.834c5.59 0 10.062 4.472 11.18 10.061 5.589 54.777 21.24 108.437 44.716 157.62499999 2.235 5.59 0 12.297-5.59 14.53200001-5.59 2.236-12.297 0-14.533-5.59-24.593-51.423-40.244-107.318-45.834-164.331-1.118-5.59 3.354-11.179 10.061-12.297z" fill="#2C334F" p-id="619"></path><path d="M867.315 761.293c3.353 0 6.70700001 1.117 10.06000001 3.353 7.826 5.59 8.94400001 15.65 3.35399999 23.47599999-5.59 7.826-11.179 14.533-16.768 21.24000001-5.59 6.708-11.18 12.297-16.769 19.00499999-6.707 6.707-16.768 6.707-23.476 1.11800001-6.707-6.708-6.70700001-16.769-1.118-23.476 5.59-5.59 10.062-11.18 15.651-17.887 5.59-6.707 10.06100001-13.415 15.65-20.12200001 3.354-4.472 7.826-6.707 13.416-6.70699999zM948.922 562.30599999l2.235 1e-8c8.944 1.118 15.651 10.06 14.533 19.004-8.943 59.249-29.065 115.144-59.249 167.686-4.471 7.825-14.533 10.06-23.476 5.59-7.825-4.472-10.06-14.534-5.58999999-23.477 29.066-46.952 46.953-99.493 54.77799999-154.27 2.236-7.826 8.943-14.53300001 16.769-14.53300001z m-664.035-76.01799999l287.3 171.04000001c17.887 10.05999999 39.128-2.236 39.12799999-23.47600001L611.315 292.89c0-20.122-21.24-33.537-39.12699999-23.476l-287.30100001 169.921c-16.769 11.18-16.769 36.891 0 46.952" fill="#FFFFFF" p-id="620"></path><path d="M515.175 610.37600001c2.236 0 3.35399999 0 5.59 1.11699999l31.3 17.887c5.59 3.354 6.708 10.061 3.354 15.65s-10.06 6.708-15.65 3.354l-31.302-17.886c-5.59-3.354-6.70700001-10.061-3.353-15.65 2.236-2.237 6.70700001-4.472 10.06-4.472z" fill="#2C334F" p-id="621"></path><path d="M615.786 285.066c7.826 0 15.65 2.235 23.476 6.707 15.65 8.943 24.594 24.594 24.594 42.48l-1e-8 304.07c0 17.88700001-8.94299999 33.537-24.59399999 42.48-14.533 8.944-32.419 7.826-46.952 0l-17.886-11.179c-5.59-3.353-6.708-10.06-3.354-15.65s10.061-6.708 15.65-3.354l17.887 11.18c7.825 4.47 16.769 4.47 24.594 0 7.825-4.472 13.415-13.41600001 13.415-23.477l1e-8-304.07c0-10.06-4.472-17.886-13.41500001-23.476-7.825-4.471-16.769-4.47099999-24.594-1e-8l-256 152.03500001c-7.825 4.472-12.297 13.415-12.297 22.358s4.472 17.887 12.297 22.358l146.446 87.19699999c5.59 3.354 6.70700001 10.061 3.353 15.65000001-3.353 5.59-10.06 6.708-15.65 3.354l-146.446-87.196c-14.53300001-8.943-23.476-24.594-23.476-42.48 0-17.88700001 8.943-33.538 23.476-42.48l254.88200001-149.8c7.826-4.47200001 15.651-6.707 24.59399999-6.707z" fill="#2C334F" p-id="622"></path></svg>