<?xml version="1.0" standalone="no"?><!DOCTYPE svg PUBLIC "-//W3C//DTD SVG 1.1//EN" "http://www.w3.org/Graphics/SVG/1.1/DTD/svg11.dtd"><svg t="1598081543262" class="icon" viewBox="0 0 1024 1024" version="1.1" xmlns="http://www.w3.org/2000/svg" p-id="896" xmlns:xlink="http://www.w3.org/1999/xlink" width="200" height="200"><defs><style type="text/css"></style></defs><path d="M428.78 442h-92.88v104.34h377.4L817.66 442h-100.54c-5.178 0-9.39-3.956-9.9-9h-19.688v32.75a10 10 0 1 1-20 0V433H635.24v78.778a10 10 0 1 1-20 0V433h-32.29v78.778a10 10 0 1 1-20 0V433h-32.292v78.778a10 10 0 1 1-20 0V433h-32.288v32.75a10 10 0 0 1-20 0V433h-19.696c-0.502 5.044-4.698 9-9.894 9z" fill="#CC7B5A" p-id="897"></path><path d="M817.66 442l-104.36 104.34h-377.4v-26.2h179.3c1.56 1.04 3.44 1.64 5.46 1.64s3.9-0.6 5.46-1.64h41.36c1.56 1.04 3.46 1.64 5.48 1.64s3.9-0.6 5.48-1.64h41.32c1.58 1.04 3.46 1.64 5.48 1.64s3.9-0.6 5.48-1.64h82.58L791.46 442h26.2z" fill="#23130D" opacity=".2" p-id="898"></path><path d="M956.7 479.72a10.012 10.012 0 0 0-5.6-7.32l-105.04-49.42c-0.06-0.04-0.1-0.04-0.14-0.06-0.12-0.06-0.22-0.12-0.34-0.16l-0.22-0.06a5.04 5.04 0 0 0-0.78-0.24c-0.18-0.06-0.36-0.14-0.54-0.18-0.44-0.1-0.88-0.14-1.32-0.18-0.22-0.02-0.44-0.06-0.64-0.06-0.1 0-0.2-0.04-0.3-0.04h-124.66c-5.52 0-10 4.48-10 10 0 0.342 0.068 0.666 0.1 1 0.51 5.044 4.722 9 9.9 9h100.54l-104.36 104.34h-377.4V442h92.88c5.196 0 9.392-3.956 9.9-9 0.034-0.334 0.1-0.658 0.1-1 0-5.52-4.46-10-10-10h-102.88c-0.74 0-1.46 0.1-2.16 0.26l-124.02 22.86c-2 0.36-3.82 1.34-5.26 2.76L70.08 572.2a9.99 9.99 0 0 0-1.78 11.72 10.002 10.002 0 0 0 10.66 5.2l105.52-19.46-51.28 112.68a9.98 9.98 0 0 0 9.1 14.14h49.24v272.64c0 5.52 4.46 10 10 10h515.9c0.06 0 0.14-0.02 0.2-0.02 0.6-0.02 1.18-0.08 1.76-0.18 0.28-0.06 0.52-0.16 0.8-0.24 0.36-0.1 0.72-0.2 1.08-0.34 0.26-0.1 0.5-0.26 0.76-0.4 0.32-0.16 0.66-0.32 0.96-0.52 0.28-0.2 0.54-0.44 0.8-0.66 0.24-0.2 0.5-0.36 0.72-0.58l124.34-124.32c0.2-0.18 0.34-0.4 0.5-0.6 0.26-0.3 0.52-0.58 0.74-0.9 0.26-0.38 0.46-0.8 0.66-1.22 0.08-0.16 0.18-0.32 0.26-0.48 0.22-0.54 0.38-1.1 0.5-1.66 0.02-0.06 0.06-0.14 0.06-0.2 0.14-0.7 0.22-1.4 0.2-2.12V590.62l102.14-102.1a10.012 10.012 0 0 0 2.78-8.8zM106.98 563.62l12.02-12.02h0.002l87.398-87.38 89.68-16.54-99.42 99.4-89.68 16.54z m208.92-107.48v90.2h-90.22l25.5-25.5h0.006l64.714-64.7zM157.84 676.48l50.14-110.14h493.92l-50.14 110.14H157.84z m350.88 203.24v79.4h-98.48v-104.06L453.7 884c0.08 0.06 0.16 0.1 0.24 0.16h0.02c0.38 0.26 0.78 0.48 1.18 0.68 0.1 0.04 0.22 0.1 0.32 0.14 0.3 0.14 0.62 0.26 0.92 0.36 0.16 0.04 0.3 0.08 0.46 0.14 0.28 0.08 0.58 0.14 0.88 0.18a9.196 9.196 0 0 0 1.72 0.18h0.08c0.44 0 0.86-0.04 1.28-0.1 0.14-0.02 0.28-0.04 0.42-0.08 0.32-0.04 0.62-0.1 0.92-0.2l0.42-0.12c0.32-0.1 0.64-0.22 0.96-0.36 0.1-0.04 0.2-0.1 0.3-0.14 0.4-0.2 0.8-0.42 1.2-0.68 0.08-0.06 0.16-0.1 0.24-0.16l43.46-28.94v24.66z m198.72-225.26v304.66h-178.72v-122.66-0.08c0-0.14-0.04-0.26-0.04-0.4-0.02-0.52-0.06-1.04-0.16-1.54-0.06-0.34-0.18-0.64-0.28-0.96-0.1-0.3-0.16-0.62-0.28-0.9-0.22-0.52-0.48-0.98-0.76-1.46-0.06-0.08-0.1-0.18-0.16-0.28v-0.02c-0.38-0.54-0.8-1.06-1.26-1.52-0.2-0.2-0.44-0.36-0.66-0.54-0.28-0.24-0.54-0.48-0.84-0.68-0.28-0.18-0.58-0.32-0.86-0.48-0.28-0.14-0.56-0.32-0.86-0.44-0.34-0.14-0.7-0.22-1.06-0.34-0.26-0.08-0.52-0.18-0.8-0.24-0.64-0.12-1.3-0.2-1.96-0.2h-0.02c-0.1 0-0.2 0.04-0.32 0.04-0.54 0.02-1.08 0.06-1.62 0.16-0.32 0.06-0.6 0.18-0.9 0.26-0.34 0.1-0.66 0.18-0.98 0.3-0.5 0.22-0.96 0.48-1.42 0.76-0.1 0.06-0.2 0.1-0.3 0.16l-0.04 0.02-0.02 0.02-53.64 35.72-53.64-35.72s0-0.02-0.02-0.02l-0.04-0.02c-0.08-0.06-0.2-0.1-0.3-0.16a12.06 12.06 0 0 0-1.42-0.76c-0.32-0.12-0.64-0.2-0.96-0.3-0.3-0.08-0.6-0.2-0.9-0.26-0.54-0.1-1.08-0.14-1.62-0.16-0.12 0-0.22-0.04-0.34-0.04h-0.02c-0.66 0-1.32 0.08-1.96 0.2-0.26 0.06-0.5 0.16-0.76 0.24-0.38 0.1-0.74 0.18-1.1 0.34-0.28 0.12-0.54 0.28-0.82 0.42-0.3 0.16-0.6 0.3-0.88 0.5-0.3 0.18-0.54 0.42-0.8 0.64-0.24 0.2-0.5 0.36-0.72 0.58-0.46 0.46-0.88 0.98-1.24 1.52 0 0.02-0.02 0.02-0.02 0.02-0.08 0.12-0.12 0.26-0.2 0.38-0.26 0.44-0.52 0.88-0.72 1.34-0.12 0.32-0.2 0.64-0.28 0.96-0.1 0.3-0.22 0.6-0.28 0.92-0.1 0.52-0.14 1.02-0.16 1.54 0 0.14-0.04 0.26-0.04 0.4v122.74h-178.7V696.48H658.2c3.92 0 7.48-2.28 9.1-5.86l40.14-88.16v52z m124.34 8.14v178.06l-104.34 104.32V572.1l90.8 42.72c1.36 0.64 2.8 0.94 4.24 0.94 2.6 0 5.16-1 7.08-2.92l2.22-2.24v52z m3-83.26c-0.04 0.04-0.08 0.08-0.12 0.1l-6.4 6.4-7.88 7.88-85.8-40.38 109.32-109.28 11.62 5.46-0.006 0.006 74.186 34.914-94.92 94.9z" fill="#23130D" p-id="899"></path><path d="M465.02 908.82c-0.4 0.26-0.8 0.48-1.2 0.68-0.1 0.04-0.2 0.1-0.3 0.14-0.32 0.14-0.64 0.26-0.96 0.36l-0.42 0.12c-0.3 0.1-0.6 0.16-0.92 0.2-0.14 0.04-0.28 0.06-0.42 0.08-0.42 0.06-0.84 0.1-1.28 0.1h-0.08c-0.42 0-0.86-0.04-1.28-0.1-0.14-0.02-0.28-0.04-0.44-0.08-0.3-0.04-0.6-0.1-0.88-0.18-0.16-0.06-0.3-0.1-0.46-0.14a8.74 8.74 0 0 1-0.92-0.36c-0.1-0.04-0.22-0.1-0.32-0.14-0.4-0.2-0.8-0.42-1.18-0.68h-0.02c-0.08-0.06-0.16-0.1-0.24-0.16l-43.46-28.94v79.4h98.48v-79.4l-43.46 28.94c-0.08 0.06-0.16 0.1-0.24 0.16z" fill="#E1E1E5" p-id="900"></path><path d="M465.02 884.16c-0.4 0.26-0.8 0.48-1.2 0.68-0.1 0.04-0.2 0.1-0.3 0.14-0.32 0.14-0.64 0.26-0.96 0.36l-0.42 0.12c-0.3 0.1-0.6 0.16-0.92 0.2-0.14 0.04-0.28 0.06-0.42 0.08-0.42 0.06-0.84 0.1-1.28 0.1h-0.08c-0.42 0-0.86-0.04-1.28-0.1-0.14-0.02-0.28-0.04-0.44-0.08-0.3-0.04-0.6-0.1-0.88-0.18-0.16-0.06-0.3-0.1-0.46-0.14a8.74 8.74 0 0 1-0.92-0.36c-0.1-0.04-0.22-0.1-0.32-0.14-0.4-0.2-0.8-0.42-1.18-0.68h-0.02c-0.08-0.06-0.16-0.1-0.24-0.16l-43.46-28.94v24.66l43.46 28.94c0.08 0.06 0.16 0.1 0.24 0.16h0.02c0.38 0.26 0.78 0.48 1.18 0.68 0.1 0.04 0.22 0.1 0.32 0.14 0.3 0.14 0.62 0.26 0.92 0.36 0.16 0.04 0.3 0.08 0.46 0.14 0.28 0.08 0.58 0.14 0.88 0.18a9.196 9.196 0 0 0 1.72 0.18h0.08c0.44 0 0.86-0.04 1.28-0.1 0.14-0.02 0.28-0.04 0.42-0.08 0.32-0.04 0.62-0.1 0.92-0.2l0.42-0.12c0.32-0.1 0.64-0.22 0.96-0.36 0.1-0.04 0.2-0.1 0.3-0.14 0.4-0.2 0.8-0.42 1.2-0.68 0.08-0.06 0.16-0.1 0.24-0.16l43.46-28.94v-24.66L465.26 884c-0.08 0.06-0.16 0.1-0.24 0.16z" fill="#E1E1E5" p-id="901"></path><path d="M465.02 884.16c-0.4 0.26-0.8 0.48-1.2 0.68-0.1 0.04-0.2 0.1-0.3 0.14-0.32 0.14-0.64 0.26-0.96 0.36l-0.42 0.12c-0.3 0.1-0.6 0.16-0.92 0.2-0.14 0.04-0.28 0.06-0.42 0.08-0.42 0.06-0.84 0.1-1.28 0.1h-0.08c-0.42 0-0.86-0.04-1.28-0.1-0.14-0.02-0.28-0.04-0.44-0.08-0.3-0.04-0.6-0.1-0.88-0.18-0.16-0.06-0.3-0.1-0.46-0.14a8.74 8.74 0 0 1-0.92-0.36c-0.1-0.04-0.22-0.1-0.32-0.14-0.4-0.2-0.8-0.42-1.18-0.68h-0.02c-0.08-0.06-0.16-0.1-0.24-0.16l-43.46-28.94v24.66l43.46 28.94c0.08 0.06 0.16 0.1 0.24 0.16h0.02c0.38 0.26 0.78 0.48 1.18 0.68 0.1 0.04 0.22 0.1 0.32 0.14 0.3 0.14 0.62 0.26 0.92 0.36 0.16 0.04 0.3 0.08 0.46 0.14 0.28 0.08 0.58 0.14 0.88 0.18a9.196 9.196 0 0 0 1.72 0.18h0.08c0.44 0 0.86-0.04 1.28-0.1 0.14-0.02 0.28-0.04 0.42-0.08 0.32-0.04 0.62-0.1 0.92-0.2l0.42-0.12c0.32-0.1 0.64-0.22 0.96-0.36 0.1-0.04 0.2-0.1 0.3-0.14 0.4-0.2 0.8-0.42 1.2-0.68 0.08-0.06 0.16-0.1 0.24-0.16l43.46-28.94v-24.66L465.26 884c-0.08 0.06-0.16 0.1-0.24 0.16z" fill="#23130D" opacity=".2" p-id="902"></path><path d="M279.72 450.7l16.36-3.02-89.68 16.54-87.398 87.38 73.318-13.52z" fill="#F8D3C9" p-id="903"></path><path d="M119 551.6l-12.02 12.02 12.022-12.02z" fill="#23130D" p-id="904"></path><path d="M119 551.6l-12.02 12.02 12.022-12.02z" fill="#23130D" opacity=".2" p-id="905"></path><path d="M296.08 447.68l-16.36 3.02-87.4 87.38-73.318 13.52-12.022 12.02 89.68-16.54z" fill="#F8D3C9" p-id="906"></path><path d="M296.08 447.68l-16.36 3.02-87.4 87.38-73.318 13.52-12.022 12.02 89.68-16.54z" fill="#23130D" opacity=".2" p-id="907"></path><path d="M315.9 520.84v-64.7l-64.714 64.7z" fill="#CC7B5A" p-id="908"></path><path d="M251.18 520.84l-25.5 25.5 25.506-25.5z" fill="#23130D" p-id="909"></path><path d="M251.18 520.84l-25.5 25.5 25.506-25.5z" fill="#23130D" opacity=".2" p-id="910"></path><path d="M225.68 546.34h90.22v-25.5h-64.714z" fill="#CC7B5A" p-id="911"></path><path d="M225.68 546.34h90.22v-25.5h-64.714z" fill="#23130D" opacity=".2" p-id="912"></path><path d="M754.08 550.92l74.18 34.92 6.4-6.4c0.04-0.02 0.08-0.06 0.12-0.1l94.92-94.9-74.186-34.914-101.434 101.394z" fill="#F8D3C9" p-id="913"></path><path d="M855.52 449.52l-11.62-5.46 11.614 5.466z" fill="#23130D" p-id="914"></path><path d="M855.52 449.52l-11.62-5.46 11.614 5.466z" fill="#23130D" opacity=".2" p-id="915"></path><path d="M855.514 449.526l-11.614-5.466-109.32 109.28 85.8 40.38 7.88-7.88-74.18-34.92z" fill="#F8D3C9" p-id="916"></path><path d="M855.514 449.526l-11.614-5.466-109.32 109.28 85.8 40.38 7.88-7.88-74.18-34.92z" fill="#23130D" opacity=".2" p-id="917"></path><path d="M822.48 667.76c-1.44 0-2.88-0.3-4.24-0.94l-90.8-42.72v320.88l104.34-104.32V662.6l-2.22 2.24c-1.92 1.92-4.48 2.92-7.08 2.92z" fill="#CC7B5A" p-id="918"></path><path d="M683.9 579H202.22l5.76-12.66-50.14 110.14h481.68z" fill="#F8D3C9" p-id="919"></path><path d="M683.9 579l-44.38 97.48h12.24l50.14-110.14H207.98l-5.76 12.66z" fill="#F8D3C9" p-id="920"></path><path d="M683.9 579l-44.38 97.48h12.24l50.14-110.14H207.98l-5.76 12.66z" fill="#23130D" opacity=".2" p-id="921"></path><path d="M658.2 748.48H211.54v210.64h178.7v-122.66-0.08c0-0.14 0.04-0.26 0.04-0.4 0.02-0.52 0.06-1.02 0.16-1.54 0.06-0.32 0.18-0.62 0.28-0.92 0.08-0.32 0.16-0.64 0.28-0.96 0.2-0.46 0.46-0.9 0.72-1.34 0.08-0.12 0.12-0.26 0.2-0.38 0 0 0.02 0 0.02-0.02 0.36-0.54 0.78-1.06 1.24-1.52 0.22-0.22 0.48-0.38 0.72-0.58 0.26-0.22 0.5-0.46 0.8-0.64 0.28-0.2 0.58-0.34 0.88-0.5 0.28-0.14 0.54-0.3 0.82-0.42 0.36-0.16 0.72-0.24 1.1-0.34 0.26-0.08 0.5-0.18 0.76-0.24 0.64-0.12 1.3-0.2 1.96-0.2h0.02c0.12 0 0.22 0.04 0.34 0.04 0.54 0.02 1.08 0.06 1.62 0.16 0.3 0.06 0.6 0.18 0.9 0.26 0.32 0.1 0.64 0.18 0.96 0.3 0.5 0.22 0.96 0.48 1.42 0.76 0.1 0.06 0.22 0.1 0.3 0.16l0.04 0.02c0.02 0 0.02 0.02 0.02 0.02l53.64 35.72 53.64-35.72 0.02-0.02 0.04-0.02c0.1-0.06 0.2-0.1 0.3-0.16 0.46-0.28 0.92-0.54 1.42-0.76 0.32-0.12 0.64-0.2 0.98-0.3 0.3-0.08 0.58-0.2 0.9-0.26 0.54-0.1 1.08-0.14 1.62-0.16 0.12 0 0.22-0.04 0.32-0.04h0.02c0.66 0 1.32 0.08 1.96 0.2 0.28 0.06 0.54 0.16 0.8 0.24 0.36 0.12 0.72 0.2 1.06 0.34 0.3 0.12 0.58 0.3 0.86 0.44 0.28 0.16 0.58 0.3 0.86 0.48 0.3 0.2 0.56 0.44 0.84 0.68 0.22 0.18 0.46 0.34 0.66 0.54 0.46 0.46 0.88 0.98 1.26 1.52v0.02c0.06 0.1 0.1 0.2 0.16 0.28 0.28 0.48 0.54 0.94 0.76 1.46 0.12 0.28 0.18 0.6 0.28 0.9 0.1 0.32 0.22 0.62 0.28 0.96 0.1 0.5 0.14 1.02 0.16 1.54 0 0.14 0.04 0.26 0.04 0.4v122.74h178.72V654.46l-40.14 88.16a9.974 9.974 0 0 1-9.1 5.86zM822.48 615.76c-1.44 0-2.88-0.3-4.24-0.94l-90.8-42.72v52l90.8 42.72c1.36 0.64 2.8 0.94 4.24 0.94 2.6 0 5.16-1 7.08-2.92l2.22-2.24v-52l-2.22 2.24c-1.92 1.92-4.48 2.92-7.08 2.92z" fill="#CC7B5A" p-id="922"></path><path d="M822.48 615.76c-1.44 0-2.88-0.3-4.24-0.94l-90.8-42.72v52l90.8 42.72c1.36 0.64 2.8 0.94 4.24 0.94 2.6 0 5.16-1 7.08-2.92l2.22-2.24v-52l-2.22 2.24c-1.92 1.92-4.48 2.92-7.08 2.92z" fill="#23130D" opacity=".2" p-id="923"></path><path d="M658.2 696.48H211.54v52H658.2c3.92 0 7.48-2.28 9.1-5.86l40.14-88.16v-52l-40.14 88.16a9.974 9.974 0 0 1-9.1 5.86z" fill="#CC7B5A" p-id="924"></path><path d="M658.2 696.48H211.54v52H658.2c3.92 0 7.48-2.28 9.1-5.86l40.14-88.16v-52l-40.14 88.16a9.974 9.974 0 0 1-9.1 5.86z" fill="#23130D" opacity=".2" p-id="925"></path><path d="M582.94 309.44v-28.8c24.54-0.02 44.48-20 44.48-44.54 0-24.56-19.96-44.54-44.5-44.54h-19.94c-13.52 0-24.54-11-24.54-24.52 0-13.54 11.02-24.54 24.54-24.54h54.44c5.54 0 10-4.48 10-10s-4.46-10-10-10h-34.48V97.456a105.46 105.46 0 0 0-10.01-0.49c-4.33 0-7.98-2.766-9.372-6.616a9.904 9.904 0 0 0-0.618 3.348v28.8c-24.54 0.02-44.5 20-44.5 44.54s19.98 44.52 44.54 44.52h19.94c13.5 0 24.5 11.02 24.5 24.54s-11 24.54-24.5 24.54h-54.46c-5.54 0-10 4.46-10 10 0 5.52 4.46 10 10 10h34.48v28.8c0 1.926 0.57 3.706 1.514 5.232 0.11 0.176 0.214 0.356 0.332 0.526 0.28 0.396 0.59 0.768 0.922 1.118 0.14 0.148 0.29 0.286 0.438 0.424 0.292 0.272 0.602 0.528 0.926 0.764 0.136 0.1 0.268 0.208 0.41 0.3 0.464 0.304 0.952 0.572 1.464 0.796 0.122 0.054 0.252 0.092 0.376 0.14a9.898 9.898 0 0 0 1.814 0.518c0.586 0.106 1.184 0.182 1.8 0.182a10 10 0 0 0 10.004-9.998z" fill="#23130D" p-id="926"></path><path d="M572.96 358.26c86.38 0 156.68-70.3 156.68-156.7 0-86.38-70.3-156.68-156.68-156.68-86.4 0-156.68 70.3-156.68 156.68 0 86.4 70.28 156.7 156.68 156.7z m-136.516-163.13c0.014-0.308 0.024-0.616 0.04-0.922 0.108-2.03 0.266-4.046 0.462-6.052 0.036-0.366 0.072-0.732 0.112-1.098 0.212-2.006 0.464-4.002 0.762-5.982 0.042-0.28 0.09-0.558 0.134-0.838 0.656-4.172 1.5-8.282 2.526-12.32 0.062-0.244 0.12-0.49 0.184-0.734 0.504-1.942 1.056-3.866 1.644-5.774 0.092-0.296 0.182-0.592 0.276-0.886 0.602-1.91 1.242-3.806 1.926-5.68l0.236-0.632a135.34 135.34 0 0 1 4.866-11.488c0.09-0.188 0.176-0.376 0.268-0.564a135.786 135.786 0 0 1 3.132-6.06c0.956-1.744 1.942-3.466 2.97-5.162l0.334-0.54a136.828 136.828 0 0 1 6.906-10.216l0.392-0.532a139.77 139.77 0 0 1 4.212-5.324c1.246-1.5 2.52-2.974 3.828-4.418l0.5-0.544a138.324 138.324 0 0 1 8.596-8.598c0.186-0.17 0.37-0.344 0.558-0.514a139.168 139.168 0 0 1 5.138-4.422c0.354-0.29 0.7-0.586 1.056-0.872l-0.082 0.106c23.434-18.862 53.182-30.186 85.542-30.186 75.36 0 136.68 61.32 136.68 136.68 0 32.352-11.318 62.094-30.17 85.53l0.09-0.07c-0.246 0.308-0.504 0.606-0.752 0.912l-0.86 1.044a137.944 137.944 0 0 1-3.612 4.17c-0.234 0.258-0.472 0.512-0.708 0.768a138.352 138.352 0 0 1-3.992 4.186l-0.132 0.132a137.08 137.08 0 0 1-4.274 4.076c-0.222 0.204-0.44 0.41-0.664 0.612a137.08 137.08 0 0 1-5.134 4.416 136.272 136.272 0 0 1-4.52 3.554c-0.218 0.164-0.44 0.324-0.66 0.486a136.878 136.878 0 0 1-10.04 6.788l-0.686 0.424a134.52 134.52 0 0 1-5.926 3.384c-1.706 0.92-3.432 1.808-5.18 2.658l-0.736 0.35a136.088 136.088 0 0 1-11.272 4.776l-0.794 0.298a137.176 137.176 0 0 1-12.238 3.814c-0.284 0.074-0.568 0.142-0.852 0.214a135.25 135.25 0 0 1-12.204 2.502c-0.3 0.048-0.596 0.098-0.896 0.144a137.98 137.98 0 0 1-7.076 0.872c-2 0.196-4.012 0.352-6.036 0.46-0.308 0.016-0.618 0.026-0.926 0.04-2.132 0.1-4.272 0.164-6.428 0.164-75.38 0-136.68-61.32-136.68-136.7a131.92 131.92 0 0 1 0.16-6.432z" fill="#23130D" p-id="927"></path><path d="M564 313.9c0.134 0.268 0.298 0.518 0.454 0.772a9.908 9.908 0 0 1-1.514-5.232v-28.8h-34.48c-5.54 0-10-4.48-10-10 0-5.54 4.46-10 10-10h54.46c13.5 0 24.5-11.02 24.5-24.54s-11-24.54-24.5-24.54h-19.94c-24.56 0-44.54-19.98-44.54-44.52 0-24.54 19.96-44.52 44.5-44.54v-28.8c0-1.18 0.242-2.298 0.618-3.348a9.904 9.904 0 0 1-0.628-3.384 10 10 0 0 1 10-10c68.708 0 124.604 55.896 124.604 124.604a10 10 0 1 1-20 0c0-54.302-41.596-99.056-94.594-104.114V122.5h34.48c5.54 0 10 4.48 10 10s-4.46 10-10 10h-54.44c-13.52 0-24.54 11-24.54 24.54 0 13.52 11.02 24.52 24.54 24.52h19.94c24.54 0 44.5 19.98 44.5 44.54 0 24.54-19.94 44.52-44.48 44.54v28.8a10.004 10.004 0 0 1-2.94 7.08c4.6 0.46 9.28 0.7 14 0.7 32.318 0 62.042-11.294 85.47-30.13 18.852-23.436 30.17-53.178 30.17-85.53 0-75.36-61.32-136.68-136.68-136.68-32.36 0-62.108 11.324-85.542 30.186-18.83 23.424-30.098 53.142-30.098 85.454 0 65.08 45.68 119.66 106.68 133.38z" fill="#F9C139" p-id="928"></path><path d="M456.312 130.4z" fill="#23130D" p-id="929"></path><path d="M456.312 130.4z" fill="#23130D" opacity=".2" p-id="930"></path><path d="M679.56 287.02l-0.09 0.07c-0.224 0.278-0.436 0.566-0.662 0.842 0.25-0.306 0.506-0.604 0.752-0.912z" fill="#23130D" p-id="931"></path><path d="M679.56 287.02l-0.09 0.07c-0.224 0.278-0.436 0.566-0.662 0.842 0.25-0.306 0.506-0.604 0.752-0.912z" fill="#23130D" opacity=".2" p-id="932"></path><path d="M487.5 94.96c-0.356 0.286-0.704 0.584-1.056 0.872 0.32-0.262 0.652-0.508 0.974-0.766l0.082-0.106z" fill="#23130D" p-id="933"></path><path d="M487.5 94.96c-0.356 0.286-0.704 0.584-1.056 0.872 0.32-0.262 0.652-0.508 0.974-0.766l0.082-0.106z" fill="#23130D" opacity=".2" p-id="934"></path><path d="M572.96 338.26c2.156 0 4.296-0.064 6.428-0.164 0.308-0.014 0.618-0.024 0.926-0.04a139.496 139.496 0 0 0 7.164-0.574 138.384 138.384 0 0 0 5.948-0.758c0.3-0.046 0.598-0.096 0.896-0.144a135.802 135.802 0 0 0 12.204-2.502c0.284-0.072 0.57-0.14 0.852-0.214a134.04 134.04 0 0 0 5.664-1.612c0.342-0.104 0.682-0.212 1.022-0.318 1.868-0.59 3.72-1.216 5.552-1.884 0.266-0.096 0.53-0.2 0.794-0.298a136.088 136.088 0 0 0 11.272-4.776c0.246-0.118 0.492-0.23 0.736-0.35a135.768 135.768 0 0 0 6.072-3.144 134.52 134.52 0 0 0 5.034-2.898l0.686-0.424a137.514 137.514 0 0 0 10.04-6.788c0.22-0.164 0.442-0.322 0.66-0.486a138.388 138.388 0 0 0 4.52-3.554l0.816-0.674a139.74 139.74 0 0 0 4.318-3.742c0.224-0.202 0.442-0.408 0.664-0.612a134.78 134.78 0 0 0 4.274-4.076l0.132-0.132a138.352 138.352 0 0 0 3.992-4.186c0.236-0.256 0.474-0.51 0.708-0.768a137.944 137.944 0 0 0 4.472-5.214c0.226-0.276 0.438-0.564 0.662-0.842-23.426 18.836-53.15 30.13-85.47 30.13-4.72 0-9.4-0.24-14-0.7-1.8 1.8-4.3 2.92-7.06 2.92-0.616 0-1.214-0.074-1.8-0.182-0.164-0.03-0.326-0.068-0.488-0.106a9.808 9.808 0 0 1-1.326-0.412c-0.124-0.048-0.254-0.086-0.376-0.14a9.948 9.948 0 0 1-1.464-0.796c-0.142-0.094-0.272-0.2-0.41-0.3a10.26 10.26 0 0 1-0.926-0.764c-0.148-0.138-0.298-0.276-0.438-0.424a9.882 9.882 0 0 1-0.922-1.118c-0.12-0.17-0.224-0.348-0.332-0.526-0.156-0.254-0.32-0.504-0.454-0.772-61-13.72-106.68-68.3-106.68-133.38 0-32.312 11.268-62.03 30.098-85.454-0.322 0.26-0.654 0.504-0.974 0.766l-0.752 0.62a136.61 136.61 0 0 0-4.386 3.802c-0.188 0.17-0.372 0.344-0.558 0.514a137.778 137.778 0 0 0-8.596 8.598c-0.166 0.182-0.336 0.362-0.5 0.544a138.558 138.558 0 0 0-4.406 5.12 137.706 137.706 0 0 0-3.634 4.622l-0.392 0.532a137.86 137.86 0 0 0-6.906 10.216c-0.11 0.18-0.224 0.358-0.334 0.54a134.24 134.24 0 0 0-3.374 5.904 134.388 134.388 0 0 0-2.728 5.318l-0.268 0.564a136.094 136.094 0 0 0-4.866 11.488c-0.078 0.21-0.16 0.42-0.236 0.632a136.326 136.326 0 0 0-1.926 5.68l-0.276 0.886a136.266 136.266 0 0 0-1.644 5.774c-0.064 0.244-0.122 0.49-0.184 0.734a135.47 135.47 0 0 0-2.526 12.32c-0.044 0.28-0.092 0.558-0.134 0.838a136.836 136.836 0 0 0-0.874 7.08 137.114 137.114 0 0 0-0.462 6.052c-0.016 0.306-0.026 0.614-0.04 0.922a137.13 137.13 0 0 0-0.164 6.43c0 75.382 61.3 136.702 136.68 136.702z" fill="#F9C139" p-id="935"></path><path d="M572.96 338.26c2.156 0 4.296-0.064 6.428-0.164 0.308-0.014 0.618-0.024 0.926-0.04a139.496 139.496 0 0 0 7.164-0.574 138.384 138.384 0 0 0 5.948-0.758c0.3-0.046 0.598-0.096 0.896-0.144a135.802 135.802 0 0 0 12.204-2.502c0.284-0.072 0.57-0.14 0.852-0.214a134.04 134.04 0 0 0 5.664-1.612c0.342-0.104 0.682-0.212 1.022-0.318 1.868-0.59 3.72-1.216 5.552-1.884 0.266-0.096 0.53-0.2 0.794-0.298a136.088 136.088 0 0 0 11.272-4.776c0.246-0.118 0.492-0.23 0.736-0.35a135.768 135.768 0 0 0 6.072-3.144 134.52 134.52 0 0 0 5.034-2.898l0.686-0.424a137.514 137.514 0 0 0 10.04-6.788c0.22-0.164 0.442-0.322 0.66-0.486a138.388 138.388 0 0 0 4.52-3.554l0.816-0.674a139.74 139.74 0 0 0 4.318-3.742c0.224-0.202 0.442-0.408 0.664-0.612a134.78 134.78 0 0 0 4.274-4.076l0.132-0.132a138.352 138.352 0 0 0 3.992-4.186c0.236-0.256 0.474-0.51 0.708-0.768a137.944 137.944 0 0 0 4.472-5.214c0.226-0.276 0.438-0.564 0.662-0.842-23.426 18.836-53.15 30.13-85.47 30.13-4.72 0-9.4-0.24-14-0.7-1.8 1.8-4.3 2.92-7.06 2.92-0.616 0-1.214-0.074-1.8-0.182-0.164-0.03-0.326-0.068-0.488-0.106a9.808 9.808 0 0 1-1.326-0.412c-0.124-0.048-0.254-0.086-0.376-0.14a9.948 9.948 0 0 1-1.464-0.796c-0.142-0.094-0.272-0.2-0.41-0.3a10.26 10.26 0 0 1-0.926-0.764c-0.148-0.138-0.298-0.276-0.438-0.424a9.882 9.882 0 0 1-0.922-1.118c-0.12-0.17-0.224-0.348-0.332-0.526-0.156-0.254-0.32-0.504-0.454-0.772-61-13.72-106.68-68.3-106.68-133.38 0-32.312 11.268-62.03 30.098-85.454-0.322 0.26-0.654 0.504-0.974 0.766l-0.752 0.62a136.61 136.61 0 0 0-4.386 3.802c-0.188 0.17-0.372 0.344-0.558 0.514a137.778 137.778 0 0 0-8.596 8.598c-0.166 0.182-0.336 0.362-0.5 0.544a138.558 138.558 0 0 0-4.406 5.12 137.706 137.706 0 0 0-3.634 4.622l-0.392 0.532a137.86 137.86 0 0 0-6.906 10.216c-0.11 0.18-0.224 0.358-0.334 0.54a134.24 134.24 0 0 0-3.374 5.904 134.388 134.388 0 0 0-2.728 5.318l-0.268 0.564a136.094 136.094 0 0 0-4.866 11.488c-0.078 0.21-0.16 0.42-0.236 0.632a136.326 136.326 0 0 0-1.926 5.68l-0.276 0.886a136.266 136.266 0 0 0-1.644 5.774c-0.064 0.244-0.122 0.49-0.184 0.734a135.47 135.47 0 0 0-2.526 12.32c-0.044 0.28-0.092 0.558-0.134 0.838a136.836 136.836 0 0 0-0.874 7.08 137.114 137.114 0 0 0-0.462 6.052c-0.016 0.306-0.026 0.614-0.04 0.922a137.13 137.13 0 0 0-0.164 6.43c0 75.382 61.3 136.702 136.68 136.702z" fill="#23130D" opacity=".2" p-id="936"></path><path d="M572.954 521.778a10 10 0 0 0 10-10v-121.28a10 10 0 1 0-20 0v121.28a10 10 0 0 0 10 10zM625.242 521.78a10 10 0 0 0 10-10v-140.278a10 10 0 1 0-20 0v140.276a10 10 0 0 0 10 10.002zM677.534 475.75a10 10 0 0 0 10-10v-117.9a10 10 0 1 0-20 0v117.9a10 10 0 0 0 10 10zM468.376 475.75a10 10 0 0 0 10-10v-117.9a10 10 0 0 0-20 0v117.9a10 10 0 0 0 10 10zM520.662 521.78a10 10 0 0 0 10-10v-140.278a10 10 0 1 0-20 0v140.276a10 10 0 0 0 10 10.002z" fill="#23130D" p-id="937"></path><path d="M572.93 96.966c3.378 0 6.714 0.176 10.01 0.49 52.998 5.058 94.594 49.812 94.594 104.114a10 10 0 1 0 20 0c0-68.708-55.896-124.604-124.604-124.604a10 10 0 0 0-10 10c0 1.194 0.244 2.322 0.628 3.384 1.392 3.85 5.042 6.616 9.372 6.616z" fill="#FFFDFD" p-id="938"></path></svg>