<?xml version="1.0" standalone="no"?><!DOCTYPE svg PUBLIC "-//W3C//DTD SVG 1.1//EN" "http://www.w3.org/Graphics/SVG/1.1/DTD/svg11.dtd"><svg t="1600000442439" class="icon" viewBox="0 0 1033 1024" version="1.1" xmlns="http://www.w3.org/2000/svg" p-id="1471" xmlns:xlink="http://www.w3.org/1999/xlink" width="201.7578125" height="200"><defs><style type="text/css"></style></defs><path d="M1015.235633 509.764192c0 276.122271-217.991266 500.820961-486.288209 500.820961S42.659214 787.004367 42.659214 509.764192 259.532576 10.061135 528.947424 10.061135c268.296943 0 486.28821 223.580786 486.288209 499.703057" fill="#F8C121" p-id="1472"></path><path d="M486.467074 10.061135c248.174672 23.475983 442.689956 236.995633 442.689957 498.585153 0 269.414847-207.930131 489.641921-467.283843 499.703057 14.532751 1.117904 29.065502 2.235808 44.716157 2.235808 268.296943 0 486.28821-223.580786 486.28821-500.820961C992.877555 233.641921 774.886288 8.943231 506.589345 8.943231c-6.707424 1.117904-13.414847 1.117904-20.122271 1.117904z" fill="#F7931E" p-id="1473"></path><path d="M209.2269 925.624454c-2.235808 0-4.471616-1.117904-6.707424-2.235808C76.196332 827.248908 0.178865 674.09607 0.178865 512c0-281.71179 223.580786-512 497.467249-512 177.746725 0 343.196507 98.375546 431.510917 257.117904 3.353712 5.58952 1.117904 12.296943-4.471616 15.650655-5.58952 3.353712-12.296943 1.117904-15.650655-4.471616-84.960699-152.034934-242.585153-245.938865-412.50655-245.938864C236.056594 22.358079 22.536943 242.585153 22.536943 512c0 154.270742 72.663755 301.834061 193.39738 394.620087 4.471616 3.353712 5.58952 11.179039 2.235808 15.650655-2.235808 2.235808-5.58952 3.353712-8.943231 3.353712zM305.366638 982.637555c-1.117904 0-3.353712 0-4.471616-1.117904-19.004367-7.825328-36.89083-17.886463-53.659389-27.947599-5.58952-3.353712-6.707424-10.061135-3.353712-15.650655 3.353712-5.58952 10.061135-6.707424 15.650655-3.353711 16.768559 10.061135 33.537118 19.004367 51.423581 26.829694 5.58952 2.235808 7.825328 8.943231 5.58952 14.532751-3.353712 4.471616-6.707424 6.707424-11.179039 6.707424zM497.646114 1024c-55.895197 0-110.672489-8.943231-163.213974-27.947598-5.58952-2.235808-8.943231-8.943231-6.707424-14.532751 2.235808-5.58952 8.943231-8.943231 14.532751-6.707424 50.305677 17.886463 102.847162 26.829694 155.388647 26.829694 261.58952 0 475.10917-219.10917 475.10917-489.641921 0-6.707424 4.471616-11.179039 11.179039-11.179039s11.179039 4.471616 11.179039 11.179039c0 281.71179-222.462882 512-497.467248 512zM981.698515 466.165939c-5.58952 0-10.061135-4.471616-11.179039-10.061136-5.58952-54.777293-21.240175-108.436681-44.716157-157.624454-2.235808-5.58952 0-12.296943 5.589519-14.532751 5.58952-2.235808 12.296943 0 14.532752 5.58952 24.593886 51.423581 40.244541 107.318777 45.834061 164.331878 1.117904 5.58952-3.353712 11.179039-10.061136 12.296943z" fill="#2C334F" p-id="1474"></path><path d="M156.685415 262.707424c-3.353712 0-6.707424-1.117904-10.061136-3.353712-7.825328-5.58952-8.943231-15.650655-3.353711-23.475983 5.58952-7.825328 11.179039-14.532751 16.768559-21.240174 5.58952-6.707424 11.179039-12.296943 16.768559-19.004367 6.707424-6.707424 16.768559-6.707424 23.475982-1.117904 6.707424 6.707424 6.707424 16.768559 1.117904 23.475982-5.58952 5.58952-10.061135 11.179039-15.650655 17.886463-5.58952 6.707424-10.061135 13.414847-15.650655 20.122271-3.353712 4.471616-7.825328 6.707424-13.414847 6.707424zM75.078428 461.694323h-2.235808c-8.943231-1.117904-15.650655-10.061135-14.532751-19.004367 8.943231-59.248908 29.065502-115.144105 59.248908-167.685589 4.471616-7.825328 14.532751-10.061135 23.475983-5.58952 7.825328 4.471616 10.061135 14.532751 5.589519 23.475983-29.065502 46.951965-46.951965 99.49345-54.777292 154.270742-2.235808 7.825328-8.943231 14.532751-16.768559 14.532751zM739.113362 537.71179L451.812052 366.672489c-17.886463-10.061135-39.126638 2.235808-39.126637 23.475983v340.960698c0 20.122271 21.240175 33.537118 39.126637 23.475983l287.30131-169.921398c16.768559-11.179039 16.768559-36.89083 0-46.951965" fill="#FFFFFF" p-id="1475"></path><path d="M508.825153 413.624454c-2.235808 0-3.353712 0-5.58952-1.117904l-31.30131-17.886463c-5.58952-3.353712-6.707424-10.061135-3.353712-15.650655s10.061135-6.707424 15.650655-3.353711l31.30131 17.886462c5.58952 3.353712 6.707424 10.061135 3.353712 15.650655-2.235808 2.235808-6.707424 4.471616-10.061135 4.471616z" fill="#2C334F" p-id="1476"></path><path d="M408.213799 738.934498c-7.825328 0-15.650655-2.235808-23.475982-6.707424-15.650655-8.943231-24.593886-24.593886-24.593887-42.480349V385.676856c0-17.886463 8.943231-33.537118 24.593887-42.480349 14.532751-8.943231 32.419214-7.825328 46.951965 0l17.886463 11.179039c5.58952 3.353712 6.707424 10.061135 3.353711 15.650655-3.353712 5.58952-10.061135 6.707424-15.650655 3.353712l-17.886463-11.17904c-7.825328-4.471616-16.768559-4.471616-24.593886 0-7.825328 4.471616-13.414847 13.414847-13.414847 23.475983V689.746725c0 10.061135 4.471616 17.886463 13.414847 23.475982 7.825328 4.471616 16.768559 4.471616 24.593886 0l256-152.034934c7.825328-4.471616 12.296943-13.414847 12.296944-22.358079s-4.471616-17.886463-12.296944-22.358078l-146.445414-87.196507c-5.58952-3.353712-6.707424-10.061135-3.353712-15.650655 3.353712-5.58952 10.061135-6.707424 15.650655-3.353712l146.445415 87.196507c14.532751 8.943231 23.475983 24.593886 23.475982 42.480349 0 17.886463-8.943231 33.537118-23.475982 42.48035L432.807686 732.227074c-7.825328 4.471616-15.650655 6.707424-24.593887 6.707424z" fill="#2C334F" p-id="1477"></path></svg>